<?xml version="1.0" encoding="utf-8"?>
<!-- Generator: Adobe Illustrator 18.0.0, SVG Export Plug-In . SVG Version: 6.00 Build 0)  -->
<!DOCTYPE svg PUBLIC "-//W3C//DTD SVG 1.1//EN" "http://www.w3.org/Graphics/SVG/1.1/DTD/svg11.dtd">
<svg version="1.1" id="Layer_1" xmlns="http://www.w3.org/2000/svg" xmlns:xlink="http://www.w3.org/1999/xlink" x="0px" y="0px"
	 viewBox="0 0 64 64" enable-background="new 0 0 64 64" xml:space="preserve">
<g>
	<g>
		<path fill="rgba(0, 0, 0, 0)" d="M32,0c17.7,0,32,14.3,32,32S49.7,64,32,64S0,49.7,0,32S14.3,0,32,0z"/>
	</g>
</g>
<g>
	<g>
		<path fill="black" d="M23.9,21.6V30v9.9c-0.9-0.7-2.1-1.1-3.3-1.1c-3.1,0-5.6,2.5-5.6,5.6c0,3.1,2.5,5.6,5.6,5.6
			c3.1,0,5.5-2.5,5.5-5.6V30l16.7-5.9v12.4c-0.9-0.7-2.1-1.1-3.3-1.1c-3.1,0-5.5,2.5-5.5,5.6s2.5,5.6,5.5,5.6c3.1,0,5.6-2.5,5.6-5.6
			V24.1V14L23.9,21.6z"/>
	</g>
</g>
</svg>
