<?xml version="1.0" encoding="utf-8"?>
<!-- Generator: Adobe Illustrator 18.0.0, SVG Export Plug-In . SVG Version: 6.00 Build 0)  -->
<!DOCTYPE svg PUBLIC "-//W3C//DTD SVG 1.1//EN" "http://www.w3.org/Graphics/SVG/1.1/DTD/svg11.dtd">
<svg version="1.1" id="Layer_1" xmlns="http://www.w3.org/2000/svg" xmlns:xlink="http://www.w3.org/1999/xlink" x="0px" y="0px"
	 viewBox="0 0 64 64" enable-background="new 0 0 64 64" xml:space="preserve">
<path d="M50.5,38.3l6,6.7h-7.4c-8.8,0-13.3-6.6-17.1-13.5C35.8,24.6,40.3,18,49.1,18h7.4l-6,6.7l3,2.7L63.7,16L53.5,4.7l-3,2.7
	l6,6.7h-7.4c-10.4,0-16.1,7.7-19.4,13.4C26.1,21.1,20.6,14,10.9,14H0v4h10.9c8.6,0,13.2,7.4,16.6,13.5C23.7,38,19.3,44,10.9,44H0v4
	h10.9c9.8,0,15.4-6.9,18.8-12.4C33,41.3,38.7,49,49.1,49h7.4l-6,6.7l3,2.7L63.7,47L53.5,35.7L50.5,38.3z"/>
</svg>
